<?xml version="1.0" standalone="no"?>
<!DOCTYPE svg PUBLIC "-//W3C//DTD SVG 20010904//EN"
 "http://www.w3.org/TR/2001/REC-SVG-20010904/DTD/svg10.dtd">
<svg version="1.0" xmlns="http://www.w3.org/2000/svg"
 width="700.000000pt" height="700.000000pt" viewBox="0 0 700.000000 700.000000"
 preserveAspectRatio="xMidYMid meet">
<metadata>
Created by potrace 1.11, written by Peter Selinger 2001-2013
</metadata>
<g transform="translate(0.000000,700.000000) scale(0.100000,-0.100000)"
fill="#000000" stroke="none">
<path d="M3245 6658 c-237 -42 -452 -170 -612 -364 -122 -148 -243 -427 -272
-631 -5 -37 -8 -122 -7 -188 5 -190 49 -325 180 -546 60 -103 303 -507 336
-559 12 -20 1278 -2128 1350 -2250 74 -123 129 -229 162 -310 135 -326 102
-637 -94 -910 -147 -205 -329 -318 -560 -348 -153 -19 -262 3 -444 92 -135 66
-272 167 -414 306 -58 55 -117 112 -131 126 -39 37 -81 46 -120 25 -62 -33
-81 -110 -42 -170 47 -73 277 -285 397 -366 148 -100 343 -188 466 -210 105
-18 154 -22 245 -20 235 5 442 96 624 274 95 92 123 129 190 246 60 104 119
252 152 380 20 77 23 114 23 255 -1 150 -3 173 -28 255 -35 117 -70 191 -167
355 -44 74 -84 142 -89 150 -5 8 -69 114 -143 235 -146 240 -389 642 -417 690
-9 17 -57 95 -105 175 -49 79 -93 158 -98 176 -9 29 1 49 153 310 89 153 174
299 188 324 14 25 54 95 89 155 35 61 69 119 75 130 7 11 84 144 172 295 181
312 190 338 136 383 -38 33 -90 36 -129 8 -30 -22 -26 -15 -391 -626 -144
-242 -303 -507 -352 -588 l-90 -148 -32 48 c-25 37 -386 643 -480 806 -10 18
-69 118 -131 222 -167 283 -210 373 -240 505 -1 3 -4 19 -8 35 -24 105 -23
267 2 375 56 243 226 478 432 597 189 109 473 118 688 22 122 -55 229 -135
446 -333 174 -160 186 -168 231 -160 37 7 62 30 80 72 28 67 5 108 -133 244
-241 237 -474 376 -739 439 -98 23 -267 31 -349 17z"/>
<path d="M6290 5137 c-19 -12 -41 -34 -49 -49 -9 -15 -137 -236 -286 -490
-148 -254 -275 -472 -281 -483 -6 -11 -59 -103 -119 -205 -59 -102 -116 -201
-127 -220 -11 -19 -44 -75 -73 -125 -29 -49 -64 -110 -78 -135 -14 -25 -105
-182 -202 -350 -98 -168 -186 -321 -197 -340 -10 -19 -23 -42 -28 -50 -28 -43
-211 -361 -257 -446 l-33 -62 46 -88 c90 -171 79 -156 97 -136 8 9 27 40 43
67 15 28 59 106 97 175 161 287 187 334 187 339 0 3 11 21 24 40 19 29 221
387 331 586 12 22 62 110 110 195 48 85 104 184 123 220 19 36 41 72 48 81 8
8 14 19 14 23 0 5 15 34 34 65 18 31 45 76 58 101 14 25 67 119 118 210 120
211 120 212 215 382 44 79 86 155 95 169 8 15 64 116 124 225 112 203 126 243
95 280 -33 40 -88 49 -129 21z"/>
<path d="M623 5070 c-47 -19 -71 -89 -49 -140 6 -14 64 -115 129 -225 66 -110
129 -218 142 -240 12 -22 188 -328 390 -680 202 -352 380 -662 395 -690 15
-27 45 -79 65 -115 21 -36 49 -85 63 -110 13 -25 50 -90 82 -145 31 -55 68
-120 82 -145 116 -208 320 -572 362 -645 28 -50 60 -108 71 -129 28 -56 87
-113 121 -118 52 -7 111 11 138 42 13 16 61 98 107 182 45 84 90 167 99 183 9
17 34 62 55 100 46 85 99 183 135 250 15 28 43 79 63 115 50 94 170 316 205
380 16 30 60 110 96 178 l67 123 -47 82 c-26 45 -58 97 -70 115 l-21 33 -33
-63 c-18 -35 -49 -94 -70 -133 -20 -38 -72 -137 -115 -220 -43 -82 -81 -154
-85 -160 -4 -5 -47 -86 -95 -180 -49 -93 -140 -267 -202 -385 -62 -118 -128
-243 -146 -277 -17 -35 -36 -62 -42 -60 -5 2 -17 17 -26 33 -23 40 -187 326
-198 344 -5 8 -103 179 -219 380 -115 201 -284 495 -376 654 -91 159 -166 290
-166 293 0 2 -8 16 -19 31 -10 15 -85 142 -167 282 -153 263 -218 375 -289
495 -23 39 -101 171 -173 295 -72 124 -142 236 -155 248 -27 25 -73 35 -104
22z"/>
</g>
</svg>
