<?xml version="1.0" standalone="no"?>
<!DOCTYPE svg PUBLIC "-//W3C//DTD SVG 20010904//EN"
 "http://www.w3.org/TR/2001/REC-SVG-20010904/DTD/svg10.dtd">
<svg version="1.0" xmlns="http://www.w3.org/2000/svg"
 width="910.000000pt" height="910.000000pt" viewBox="0 0 910.000000 910.000000"
 preserveAspectRatio="xMidYMid meet">
<metadata>
Created by potrace 1.11, written by Peter Selinger 2001-2013
</metadata>
<g transform="translate(0.000000,910.000000) scale(0.100000,-0.100000)"
fill="#000000" stroke="none">
<path d="M4307 9054 c-1 -1 -38 -5 -82 -9 -99 -9 -245 -45 -350 -87 -294 -118
-517 -312 -690 -600 -71 -118 -172 -330 -190 -398 -1 -3 -7 -18 -14 -35 -7
-16 -15 -41 -17 -54 -3 -12 -11 -51 -19 -85 -31 -135 -44 -301 -35 -486 3 -70
35 -262 49 -295 5 -11 19 -49 31 -85 13 -36 32 -85 43 -110 11 -25 21 -47 22
-50 7 -27 151 -275 244 -420 20 -30 36 -57 36 -60 0 -3 10 -19 23 -37 12 -17
22 -36 22 -41 0 -6 3 -12 8 -14 4 -1 34 -48 67 -103 33 -55 63 -101 68 -103 4
-2 7 -8 7 -13 0 -5 53 -96 118 -201 65 -106 131 -215 147 -242 17 -28 40 -66
52 -85 13 -20 26 -43 30 -51 3 -8 17 -29 30 -46 13 -17 23 -34 23 -38 0 -3 12
-25 27 -49 15 -23 32 -51 39 -62 33 -62 169 -283 182 -297 8 -10 11 -18 7 -18
-4 0 -1 -8 7 -17 13 -16 274 -448 317 -526 17 -31 28 -48 52 -87 9 -14 24 -38
35 -55 10 -16 19 -32 19 -35 0 -3 8 -16 17 -30 41 -63 198 -331 198 -338 0 -5
8 -17 18 -28 9 -10 28 -39 41 -64 13 -25 30 -52 37 -61 8 -8 14 -18 14 -21 0
-2 55 -97 123 -209 68 -113 126 -212 130 -220 4 -7 16 -27 27 -44 11 -16 27
-43 35 -60 9 -16 42 -74 75 -128 33 -55 60 -103 60 -107 0 -5 4 -10 8 -12 10
-4 92 -146 92 -159 0 -5 5 -9 12 -9 6 0 8 -3 5 -7 -4 -3 -1 -13 6 -22 26 -30
139 -238 244 -446 43 -86 49 -98 69 -155 49 -139 68 -256 68 -420 0 -137 -8
-212 -35 -317 -10 -43 -21 -86 -23 -95 -3 -9 -10 -27 -17 -40 -7 -13 -12 -25
-12 -28 1 -10 -19 -57 -59 -138 -162 -333 -507 -599 -828 -639 -106 -13 -365
-7 -445 11 -38 8 -120 38 -132 48 -7 6 -13 8 -13 5 0 -3 -27 7 -60 24 -33 16
-62 28 -64 27 -2 -2 -12 4 -22 13 -11 9 -44 30 -74 48 -75 43 -94 55 -100 62
-3 3 -27 21 -55 40 -27 18 -52 36 -55 39 -3 3 -26 22 -51 42 -84 67 -112 92
-255 225 -157 146 -175 161 -224 181 -56 23 -86 15 -139 -42 -29 -29 -35 -45
-39 -91 -5 -61 5 -89 48 -139 37 -43 261 -267 295 -296 35 -30 155 -127 170
-138 6 -4 26 -18 45 -32 101 -74 280 -173 425 -234 91 -39 221 -86 233 -85 4
1 9 0 12 -1 57 -25 495 -30 590 -7 8 2 33 7 54 12 21 4 62 16 90 27 28 11 56
20 61 22 6 1 36 14 69 29 32 15 60 27 62 27 8 0 109 65 112 72 2 4 8 8 14 8
11 0 91 60 96 72 2 5 9 8 16 8 19 0 216 210 277 296 71 99 98 145 155 262 58
123 74 162 66 162 -4 0 -2 4 3 8 27 20 94 255 101 357 9 123 8 475 -1 520 -4
22 -9 47 -10 55 -1 15 -21 80 -32 110 -3 8 -8 23 -10 34 -5 27 -124 270 -135
274 -4 2 -8 8 -8 13 0 6 -31 62 -70 125 -38 64 -70 118 -70 121 0 2 -13 24
-30 48 -16 24 -30 46 -30 48 0 5 -73 129 -124 212 -36 59 -37 60 -116 190 -34
55 -67 109 -73 120 -7 11 -22 35 -35 53 -13 17 -20 32 -17 32 4 0 -7 17 -24
39 -17 21 -28 40 -25 43 2 3 -2 11 -11 18 -8 7 -15 19 -15 26 0 8 -3 14 -8 14
-4 0 -12 9 -17 20 -6 11 -39 68 -75 126 -36 59 -72 119 -80 133 -9 14 -28 45
-43 68 -15 24 -27 47 -27 53 0 5 -4 10 -10 10 -5 0 -10 5 -10 11 0 6 -14 31
-30 56 -16 24 -30 46 -30 48 0 4 -249 416 -260 430 -4 6 -17 27 -29 48 -12 21
-28 48 -35 60 -13 20 -8 32 60 147 41 69 78 132 81 140 4 8 33 59 65 113 32
54 58 103 58 108 0 5 4 9 9 9 5 0 11 8 14 18 4 9 21 42 39 72 18 31 69 118
113 193 44 76 85 146 90 155 6 9 34 60 64 112 30 52 66 113 81 135 15 22 29
48 33 57 3 9 18 36 33 60 16 24 35 57 44 73 9 17 26 46 37 65 137 236 169 289
184 315 10 17 28 50 41 75 13 25 26 47 31 48 4 2 7 7 7 12 0 4 16 37 36 71 84
149 101 214 74 283 -18 48 -115 73 -180 46 -26 -11 -61 -56 -125 -162 -43 -72
-83 -135 -97 -157 -10 -14 -21 -32 -24 -40 -6 -11 -179 -296 -214 -351 -5 -8
-20 -33 -33 -55 -13 -22 -70 -116 -127 -210 -57 -93 -112 -186 -124 -206 -12
-20 -63 -105 -114 -190 -52 -85 -98 -161 -103 -169 -5 -8 -39 -64 -75 -125
-37 -60 -72 -119 -78 -130 -18 -32 -69 -108 -84 -127 -11 -13 -17 -14 -26 -5
-23 23 -95 134 -194 302 -56 94 -105 175 -109 181 -9 11 -30 46 -47 79 -6 11
-19 31 -28 45 -30 45 -69 115 -75 133 -3 9 -9 17 -14 17 -5 0 -9 4 -9 10 0 5
-18 38 -40 72 -22 35 -40 68 -40 75 0 6 -3 13 -7 15 -8 3 -73 105 -73 114 0 2
-12 23 -27 47 -15 23 -33 51 -39 62 -22 39 -52 91 -101 175 -28 47 -60 101
-70 120 -11 19 -46 79 -77 132 -125 217 -261 508 -281 602 -2 11 -7 32 -10 46
-22 96 -27 141 -30 266 -2 78 1 161 5 185 4 24 11 60 13 79 8 50 41 169 60
213 9 20 14 37 12 37 -11 0 108 214 155 280 94 132 220 256 326 320 21 13 41
27 44 30 9 12 143 72 210 95 84 29 182 42 325 45 122 3 213 -11 345 -53 95
-30 302 -132 350 -171 8 -7 45 -34 82 -59 60 -42 85 -61 122 -92 6 -5 41 -35
76 -65 36 -30 72 -62 80 -70 322 -306 361 -327 447 -231 18 20 33 42 33 49 0
6 5 12 10 12 14 0 12 76 -2 102 -51 90 -238 294 -356 388 -24 19 -56 45 -70
58 -47 39 -274 188 -347 227 -38 20 -76 41 -82 47 -7 6 -13 7 -13 3 0 -4 -7
-2 -16 6 -14 12 -116 57 -139 62 -5 2 -14 5 -20 8 -15 9 -135 47 -167 54 -16
3 -40 7 -55 10 -16 3 -38 7 -50 10 -45 10 -278 26 -286 19z"/>
<path d="M8573 7005 c-40 -17 -92 -71 -118 -121 -11 -22 -22 -41 -25 -44 -3
-3 -14 -21 -25 -41 -74 -135 -118 -210 -126 -215 -5 -3 -7 -10 -4 -15 4 -5 3
-9 -2 -9 -4 0 -19 -21 -33 -47 -13 -27 -27 -50 -30 -53 -3 -3 -13 -21 -24 -40
-14 -28 -175 -308 -257 -448 -9 -15 -27 -47 -41 -72 -97 -172 -194 -336 -200
-338 -5 -2 -6 -7 -3 -12 3 -5 -1 -14 -8 -22 -7 -7 -31 -44 -52 -83 -22 -38
-52 -90 -67 -115 -15 -25 -31 -52 -35 -60 -4 -8 -27 -49 -52 -90 -24 -41 -49
-84 -55 -95 -6 -11 -47 -82 -91 -158 -44 -76 -89 -154 -100 -175 -11 -20 -35
-61 -52 -90 -18 -29 -33 -57 -33 -62 0 -6 -4 -10 -8 -10 -4 0 -13 -12 -20 -27
-6 -16 -21 -44 -33 -63 -12 -19 -33 -56 -48 -81 -32 -57 -101 -177 -118 -204
-7 -11 -16 -27 -20 -35 -4 -8 -36 -64 -71 -125 -83 -141 -99 -168 -135 -235
-17 -30 -33 -57 -36 -60 -3 -3 -15 -21 -25 -40 -46 -85 -68 -124 -150 -263
-47 -82 -86 -151 -86 -153 0 -2 -15 -27 -33 -56 -19 -29 -37 -60 -40 -68 -4
-8 -15 -28 -25 -45 -10 -16 -32 -55 -49 -85 -17 -30 -51 -89 -75 -130 -25 -41
-63 -109 -86 -151 -41 -76 -42 -78 -28 -117 8 -23 21 -51 28 -64 7 -13 13 -25
13 -28 1 -3 19 -39 40 -80 21 -41 47 -92 58 -113 10 -20 23 -37 27 -37 6 0 21
20 68 95 7 11 18 32 25 48 6 15 15 27 19 27 4 0 8 4 8 9 0 8 106 204 158 291
11 19 35 62 53 95 17 33 37 63 43 67 6 4 7 8 2 8 -5 0 -2 8 6 18 8 9 30 46 49
82 18 36 36 67 40 70 3 3 8 10 10 15 8 19 112 210 118 215 3 3 13 19 22 35 27
53 86 159 118 213 17 29 31 57 31 61 0 5 8 19 18 32 10 13 36 58 58 99 21 41
42 77 47 78 4 2 7 8 7 12 0 5 13 31 28 57 16 26 45 79 66 116 35 64 48 87 97
175 12 20 43 75 69 122 26 47 58 103 70 125 13 22 33 58 45 80 25 46 61 110
118 210 22 39 51 90 65 115 13 25 40 71 58 103 19 32 34 60 34 62 0 3 18 34
40 70 22 36 40 69 40 74 0 4 9 20 21 35 11 14 17 26 12 26 -4 0 -3 4 2 8 11 8
14 12 76 128 23 44 50 90 59 104 9 14 33 54 52 90 45 83 78 142 144 258 30 52
54 95 54 96 0 2 23 43 51 92 67 115 82 142 136 239 24 44 51 91 59 105 8 14
23 41 32 60 9 19 20 37 23 40 3 3 22 37 43 75 168 311 177 357 86 420 -47 33
-85 39 -127 20z"/>
<path d="M425 6785 c-16 -8 -27 -14 -23 -15 3 0 -7 -14 -22 -30 -36 -39 -45
-79 -28 -127 7 -21 15 -40 18 -43 3 -3 14 -23 25 -45 11 -22 50 -93 88 -158
37 -65 67 -123 67 -127 0 -5 4 -10 8 -12 4 -1 38 -55 75 -118 37 -63 74 -126
82 -140 98 -166 155 -264 155 -268 0 -3 6 -13 14 -21 13 -16 59 -94 80 -138 6
-13 14 -23 19 -23 4 0 7 -4 7 -9 0 -4 49 -93 110 -196 60 -103 110 -189 110
-191 0 -2 18 -33 40 -69 22 -36 40 -67 40 -70 0 -2 20 -38 45 -78 25 -41 45
-77 45 -81 0 -3 17 -34 38 -68 21 -35 43 -74 50 -88 7 -14 20 -38 30 -55 10
-16 35 -59 54 -95 20 -36 59 -105 87 -153 28 -49 51 -90 51 -91 0 -2 23 -43
52 -92 29 -49 62 -109 75 -134 13 -25 33 -58 43 -75 11 -16 23 -37 27 -45 3
-8 37 -68 75 -133 37 -65 68 -120 68 -121 0 -2 66 -120 148 -262 81 -143 154
-273 162 -289 8 -17 19 -37 26 -45 6 -8 24 -40 40 -70 15 -30 37 -67 47 -82
10 -16 15 -28 11 -28 -4 0 -1 -8 7 -17 8 -10 20 -29 27 -42 8 -13 23 -40 34
-60 11 -20 32 -56 47 -81 14 -25 35 -61 46 -82 29 -54 119 -214 160 -283 19
-33 38 -67 42 -75 24 -52 125 -212 149 -237 49 -50 144 -74 204 -51 34 12 90
51 90 62 0 4 12 25 27 45 30 39 38 51 84 139 17 31 45 84 62 117 18 33 57 105
86 160 65 122 109 202 174 320 79 143 101 184 152 280 27 50 61 112 77 138 15
26 28 54 28 62 0 7 4 15 8 17 4 1 32 48 61 103 57 105 106 197 151 280 80 147
116 215 139 260 15 28 28 52 31 55 3 3 25 43 49 89 l43 84 -22 39 c-29 51
-124 196 -148 227 -23 29 -42 24 -62 -15 -8 -16 -17 -31 -20 -34 -10 -10 -26
-40 -220 -415 -42 -82 -97 -186 -120 -230 -24 -44 -68 -127 -98 -185 -30 -58
-78 -150 -107 -205 -127 -241 -160 -304 -194 -370 -20 -38 -40 -73 -46 -77 -5
-4 -6 -8 -1 -8 5 0 4 -6 -1 -12 -10 -13 -30 -50 -158 -293 -32 -60 -71 -129
-88 -153 -28 -42 -29 -43 -49 -25 -18 16 -36 45 -73 114 -5 11 -13 19 -17 19
-5 0 -8 4 -8 10 0 5 -20 44 -45 86 -25 41 -45 77 -45 78 0 2 -60 106 -133 232
-73 126 -136 236 -141 244 -4 8 -17 32 -29 52 -12 20 -51 88 -87 150 -36 62
-69 121 -75 130 -5 9 -26 43 -45 75 -19 32 -34 60 -35 63 0 3 -8 16 -17 30
-41 65 -168 291 -168 300 0 5 -4 10 -10 10 -5 0 -10 6 -10 14 0 7 -7 19 -15
26 -9 7 -13 15 -11 18 3 3 -3 17 -13 31 -10 14 -28 43 -40 64 -11 20 -31 54
-42 75 -12 20 -33 57 -47 82 -14 25 -45 77 -69 117 -23 39 -43 76 -43 82 0 6
-4 11 -10 11 -5 0 -10 5 -10 10 0 9 -132 244 -180 320 -5 8 -46 80 -92 159
-46 79 -90 155 -98 170 -26 44 -94 161 -105 179 -5 10 -32 56 -59 102 -27 47
-56 93 -64 103 -8 9 -12 17 -8 17 4 0 -7 20 -24 44 -16 25 -30 47 -30 51 0 3
-12 24 -27 48 -15 23 -38 62 -52 87 -13 25 -37 64 -53 88 -16 23 -26 42 -22
42 3 0 0 7 -7 16 -7 9 -18 24 -24 34 -18 33 -89 155 -102 175 -7 11 -17 29
-23 40 -6 11 -16 29 -23 40 -7 11 -41 70 -76 130 -63 109 -113 190 -179 293
-39 62 -104 112 -141 111 -14 0 -39 -7 -56 -14z"/>
</g>
</svg>
