<?xml version="1.0" encoding="iso-8859-1"?>
<!-- Generator: Adobe Illustrator 19.0.0, SVG Export Plug-In . SVG Version: 6.00 Build 0)  -->
<svg version="1.1" id="Layer_1" xmlns="http://www.w3.org/2000/svg" xmlns:xlink="http://www.w3.org/1999/xlink" x="0px" y="0px"
	 viewBox="0 0 512.001 512.001" style="enable-background:new 0 0 512.001 512.001;" xml:space="preserve">
<path style="fill:#FF8C78;" d="M439.646,172.723L261.017,28.118c-2.925-2.368-7.109-2.368-10.035,0L72.354,172.723
	c-1.87,1.514-2.957,3.792-2.957,6.199v323.233h373.207V178.921C442.604,176.515,441.517,174.238,439.646,172.723z"/>
<path style="fill:#DF7A6E;" d="M297.875,57.955l-36.856-29.836c-2.926-2.368-7.11-2.368-10.035,0L103.245,147.717l-30.891,25.007
	c-1.636,1.325-2.673,3.234-2.906,5.304c-0.033,0.296-0.05,0.594-0.05,0.895v323.233c0,4.404,3.57,7.974,7.975,7.974h25.872V211.173
	L297.875,57.955z"/>
<path style="fill:#D3D2D2;" d="M511.944,199.454c-0.251-2.1-1.328-4.014-2.991-5.321L270.781,6.999
	c-8.704-6.837-20.857-6.837-29.562,0L3.048,194.133c-1.663,1.307-2.739,3.221-2.991,5.321s0.34,4.214,1.647,5.877l19.708,25.082
	c2.721,3.463,7.734,4.064,11.197,1.344L256.001,56.235l223.391,175.522c1.461,1.148,3.197,1.704,4.922,1.704
	c2.363,0,4.703-1.046,6.275-3.048l19.708-25.082C511.603,203.669,512.196,201.555,511.944,199.454z"/>
<rect x="213.472" y="349.039" style="fill:#BDBCBC;" width="85.061" height="153.11"/>
<rect x="213.472" y="349.039" style="fill:#A7A6A6;" width="25.518" height="153.11"/>
<path style="fill:#E9E9E9;" d="M306.506,349.044c0-4.404-3.569-7.975-7.974-7.975H213.47c-4.404,0-7.974,3.57-7.974,7.975v150.984
	h101.01V349.044z M290.557,494.18h-69.112V357.018h69.112V494.18z"/>
<path style="fill:#C4DF64;" d="M51.854,418.156c-23.158,0-41.999,18.841-41.999,41.999c0,23.158,18.841,41.999,41.999,41.999
	s41.999-18.841,41.999-41.999C93.853,436.997,75.012,418.156,51.854,418.156z"/>
<path style="fill:#96CA62;" d="M65.145,488.863c-23.158,0-41.999-18.841-41.999-41.999c0-8.183,2.36-15.82,6.424-22.284
	c-11.83,7.438-19.715,20.599-19.715,35.575c0,23.158,18.841,41.999,41.999,41.999c14.976,0,28.137-7.885,35.575-19.715
	C80.964,486.503,73.327,488.863,65.145,488.863z"/>
<path style="fill:#C4DF64;" d="M145.421,418.156c-23.158,0-41.999,18.841-41.999,41.999c0,23.158,18.841,41.999,41.999,41.999
	s41.999-18.841,41.999-41.999C187.42,436.997,168.579,418.156,145.421,418.156z"/>
<path style="fill:#96CA62;" d="M157.649,489.927c-23.158,0-41.999-18.841-41.999-41.999c0-8.457,2.521-16.333,6.84-22.931
	c-11.469,7.507-19.068,20.458-19.068,35.159c0,23.158,18.841,41.999,41.999,41.999c14.701,0,27.653-7.598,35.159-19.068
	C173.982,487.405,166.106,489.927,157.649,489.927z"/>
<path style="fill:#C4DF64;" d="M366.581,418.156c-23.158,0-41.999,18.841-41.999,41.999c0,23.158,18.841,41.999,41.999,41.999
	s41.999-18.841,41.999-41.999C408.58,436.997,389.739,418.156,366.581,418.156z"/>
<path style="fill:#96CA62;" d="M375.507,489.224c-20.056-1.787-36.207-17.938-37.996-37.996c-0.87-9.755,1.624-18.907,6.444-26.43
	c-11.64,7.475-19.375,20.525-19.375,35.356c0,23.158,18.841,41.999,41.999,41.999c14.832,0,27.881-7.734,35.356-19.375
	C394.414,487.6,385.263,490.094,375.507,489.224z"/>
<path style="fill:#C4DF64;" d="M460.148,418.156c-23.158,0-41.999,18.841-41.999,41.999c0,23.158,18.841,41.999,41.999,41.999
	s41.999-18.841,41.999-41.999C502.147,436.997,483.306,418.156,460.148,418.156z"/>
<path style="fill:#96CA62;" d="M472.907,489.395c-23.158,0-41.999-18.841-41.999-41.999c0-8.32,2.442-16.076,6.632-22.608
	c-11.649,7.473-19.391,20.529-19.391,35.367c0,23.158,18.841,41.999,41.999,41.999c14.838,0,27.894-7.742,35.367-19.391
	C488.983,486.953,481.227,489.395,472.907,489.395z"/>
<rect x="298.534" y="221.457" style="fill:#6DDAE1;" width="102.074" height="85.061"/>
<g>
	<polygon style="fill:#4FC4D4;" points="375.087,221.452 298.532,298.007 298.532,306.513 342.48,306.513 400.605,248.388
		400.605,221.452 	"/>
	<polygon style="fill:#4FC4D4;" points="298.532,221.452 298.532,269.653 346.733,221.452 	"/>
	<polygon style="fill:#4FC4D4;" points="361.618,306.513 400.605,306.513 400.605,267.527 	"/>
</g>
<path style="fill:#E9E9E9;" d="M400.605,213.477H298.532c-4.405,0-7.975,3.57-7.975,7.975v85.061c0,4.404,3.569,7.974,7.975,7.974
	h102.074c4.405,0,7.974-3.57,7.974-7.974v-85.061C408.58,217.048,405.009,213.477,400.605,213.477z M306.506,229.426h35.088v69.112
	h-35.088V229.426z M392.631,298.539h-35.088v-69.112h35.088V298.539z"/>
<rect x="110.867" y="221.457" style="fill:#6DDAE1;" width="102.074" height="85.061"/>
<g>
	<polygon style="fill:#4FC4D4;" points="187.952,221.452 111.397,298.007 111.397,306.513 155.345,306.513 213.47,248.388
		213.47,221.452 	"/>
	<polygon style="fill:#4FC4D4;" points="111.397,221.452 111.397,269.653 159.598,221.452 	"/>
	<polygon style="fill:#4FC4D4;" points="174.484,306.513 213.47,306.513 213.47,267.527 	"/>
</g>
<path style="fill:#E9E9E9;" d="M212.939,213.477H110.865c-4.405,0-7.974,3.57-7.974,7.975v85.061c0,4.404,3.569,7.974,7.974,7.974
	h102.074c4.405,0,7.975-3.57,7.975-7.974v-85.061C220.913,217.048,217.343,213.477,212.939,213.477z M118.84,229.426h35.088v69.112
	H118.84C118.84,298.539,118.84,229.426,118.84,229.426z M204.964,298.539h-35.088v-69.112h35.088V298.539z"/>
<rect x="221.979" y="110.878" style="fill:#4FC4D4;" width="68.049" height="68.049"/>
<path style="fill:#E9E9E9;" d="M290.026,102.898h-68.049c-4.404,0-7.974,3.57-7.974,7.975v68.049c0,4.404,3.57,7.975,7.974,7.975
	h68.049c4.405,0,7.974-3.57,7.974-7.975v-68.049C298,106.468,294.43,102.898,290.026,102.898z M282.051,136.922h-18.076v-18.076
	h18.076V136.922z M248.027,118.847v18.076h-18.076v-18.076C229.951,118.847,248.027,118.847,248.027,118.847z M229.951,152.871
	h18.076v18.076h-18.076V152.871z M263.976,170.947v-18.076h18.076v18.076H263.976z"/>
<g>
	<path style="fill:#7B7979;" d="M238.989,433.574c-4.404,0-7.975-3.57-7.975-7.974v-8.506c0-4.404,3.57-7.975,7.975-7.975
		s7.975,3.57,7.975,7.975v8.506C246.963,430.003,243.393,433.574,238.989,433.574z"/>
	<path style="fill:#7B7979;" d="M502.679,510.129H9.323c-4.404,0-7.974-3.57-7.974-7.974s3.57-7.974,7.974-7.974h493.356
		c4.405,0,7.974,3.57,7.974,7.974S507.083,510.129,502.679,510.129z"/>
</g>
<g>
</g>
<g>
</g>
<g>
</g>
<g>
</g>
<g>
</g>
<g>
</g>
<g>
</g>
<g>
</g>
<g>
</g>
<g>
</g>
<g>
</g>
<g>
</g>
<g>
</g>
<g>
</g>
<g>
</g>
</svg>
