<svg version="1.1" xmlns="http://www.w3.org/2000/svg" viewBox="0, 0, 425, 455" fill-rule="evenodd">
  <title>WS</title>
  <desc>Um W e um S estilizados, o logo da empresa</desc>
  <g>
    <path d="M200.562,2.331 C208.144,1.921 214.809,3.043 222.09,4.835 C240.29,9.935 262.29,24.535 275.79,40.435 C281.99,47.835 282.49,50.235 278.69,54.735 C274.39,59.935 272.39,59.135 260.39,47.535 C238.69,26.635 221.79,17.835 203.29,17.835 C199.09,17.835 193.09,18.535 189.79,19.335 C163.69,26.235 143.99,54.835 145.59,83.835 C146.49,100.235 150.59,109.535 174.29,149.335 C182.19,162.535 190.69,176.935 193.29,181.335 C204.19,199.935 208.89,207.335 209.79,207.235 C210.89,207.035 210.39,207.835 242.89,153.635 C256.39,131.235 268.09,112.235 268.89,111.335 C270.89,109.335 276.69,109.435 278.69,111.435 C279.59,112.235 280.29,114.435 280.29,116.135 C280.29,119.335 278.09,123.535 259.79,154.835 C238.09,192.035 231.89,202.635 230.09,205.835 C228.99,207.735 225.99,212.835 223.59,217.135 L219.09,224.835 L223.59,232.135 C226.09,236.035 228.99,240.935 230.09,242.835 C231.09,244.735 236.39,253.535 241.79,262.335 C287.59,337.335 288.79,339.435 292.49,350.335 C294.49,356.435 294.79,359.235 294.69,371.835 C294.69,387.535 293.89,391.535 287.79,405.935 C279.49,425.735 264.69,441.135 247.39,448.235 C237.79,452.135 230.69,453.135 217.49,452.635 C207.39,452.135 204.69,451.635 197.79,448.935 C180.29,441.935 167.99,433.735 153.99,419.635 C145.39,410.935 144.29,409.335 144.29,406.235 C144.29,403.835 145.09,401.935 146.79,400.335 C151.09,395.935 153.59,396.835 164.19,407.135 C178.99,421.535 191.49,430.135 204.29,434.935 C209.69,436.935 212.59,437.335 221.79,437.335 C231.29,437.335 233.79,436.935 240.29,434.535 C270.59,423.335 287.39,386.235 276.69,354.035 C273.69,345.135 265.49,330.235 244.29,294.835 C232.59,275.335 222.49,258.435 221.89,257.335 C219.39,252.835 189.99,203.735 176.99,182.335 C169.29,169.635 159.69,153.935 155.69,147.335 C151.69,140.735 146.69,132.635 144.59,129.335 C138.39,119.435 134.39,110.735 132.19,101.835 C129.19,89.935 129.79,72.035 133.69,59.835 C138.49,45.035 148.49,28.335 157.39,20.335 C167.178,11.611 179.113,5.493 192.078,3.249 C194.881,2.763 197.734,2.637 200.562,2.331 z" fill-rule="nonzero" />
    <path d="M8.874,114.835 C9.974,114.835 11.974,115.835 13.374,117.035 C14.774,118.335 18.474,123.835 21.574,129.335 C24.674,134.835 32.974,149.035 39.974,160.835 C46.974,172.635 57.074,189.935 62.474,199.335 C67.874,208.635 74.574,220.335 77.474,225.335 C80.374,230.235 88.874,245.135 96.474,258.335 C115.574,291.735 121.574,302.135 126.974,311.335 C129.574,315.735 133.674,322.835 136.074,327.135 C138.474,331.335 140.774,334.735 141.274,334.535 C142.274,334.235 143.374,332.335 155.174,309.835 C159.574,301.335 165.774,289.635 168.774,283.835 C178.874,264.735 187.974,247.435 192.174,239.035 C194.474,234.535 196.874,230.935 197.374,231.135 C197.974,231.335 200.374,234.735 202.774,238.635 L207.174,245.835 L194.874,268.634 C188.174,281.135 178.974,298.035 174.474,306.335 C166.174,321.335 162.974,327.335 153.774,344.635 C148.274,354.835 146.174,356.835 140.974,356.835 C136.474,356.835 133.674,354.835 130.574,349.535 C115.774,323.435 111.774,316.335 108.474,310.335 C104.874,303.635 98.874,292.935 79.474,258.835 C74.574,250.335 69.574,241.335 68.174,238.835 C66.874,236.335 64.074,231.435 61.974,227.835 C59.874,224.235 56.874,218.835 55.274,215.835 C49.074,204.535 34.274,179.135 11.374,140.635 C5.874,131.435 1.974,123.935 1.974,122.435 C1.974,119.235 5.974,114.835 8.874,114.835 z" fill-rule="nonzero" />
    <path d="M416.255,104.005 C417.923,103.982 419.123,104.985 420.374,105.934 C424.974,109.535 424.374,111.535 412.274,132.835 C408.374,139.735 398.074,157.935 389.474,173.335 C380.774,188.735 370.674,206.735 366.974,213.335 C363.274,219.935 350.874,241.935 339.474,262.335 C328.074,282.635 317.874,300.935 316.774,302.835 C313.674,308.135 311.574,311.735 307.974,318.335 C300.374,332.335 296.574,338.835 296.074,338.835 C295.474,338.735 286.974,321.735 286.974,320.735 C286.974,320.035 291.874,311.435 317.674,266.835 C324.774,254.435 337.374,232.635 345.674,218.335 C353.874,204.035 367.374,180.835 375.474,166.835 C391.074,140.035 403.874,117.735 407.174,111.835 C409.874,107.035 411.074,105.735 413.474,104.835 C415.088,104.199 414.169,104.503 416.255,104.005 z" fill-rule="nonzero"/>
  </g>
</svg>
